HIERARCHY
ROOT Hips
{
    OFFSET   0.000000   0.000000   0.000000
    CHANNELS 6 Xposition Yposition Zposition Zrotation Xrotation Yrotation
    JOINT Chest
    {
        OFFSET   0.000000   8.007240   0.000000
        CHANNELS 3 Zrotation Xrotation Yrotation
        JOINT Chest2
        {
            OFFSET   0.000000  22.077100   0.000000
            CHANNELS 3 Zrotation Xrotation Yrotation
            JOINT Neck
            {
                OFFSET   0.000000  23.254800   0.000000
                CHANNELS 3 Zrotation Xrotation Yrotation
                JOINT Head
                {
                    OFFSET   0.000000  14.370000   1.956600
                    CHANNELS 3 Zrotation Xrotation Yrotation
                    End Site
                    {
                        OFFSET   0.000000  19.566000   0.000000
                    }
                }
            }
            JOINT LeftCollar
            {
                OFFSET   3.911900  19.017000  -0.467064
                CHANNELS 3 Zrotation Xrotation Yrotation
                JOINT LeftShoulder
                {
                    OFFSET  10.383700   0.000000   0.000000
                    CHANNELS 3 Zrotation Xrotation Yrotation
                    JOINT LeftElbow
                    {
                        OFFSET  26.662100   0.001476   0.000517
                        CHANNELS 3 Zrotation Xrotation Yrotation
                        JOINT LeftWrist
                        {
                            OFFSET  28.869000  -0.000025  -0.000106
                            CHANNELS 3 Zrotation Xrotation Yrotation
                            JOINT LeftFinger0
                            {
                                OFFSET   2.044660  -2.323460   3.252850
                                CHANNELS 3 Zrotation Xrotation Yrotation
                                JOINT LeftFinger01
                                {
                                    OFFSET   3.088130   0.000000   0.000000
                                    CHANNELS 3 Zrotation Xrotation Yrotation
                                    JOINT LeftFinger02
                                    {
                                        OFFSET   2.639460   0.000000   0.000000
                                        CHANNELS 3 Zrotation Xrotation Yrotation
                                        End Site
                                        {
                                            OFFSET   2.582190   0.000000   0.000000
                                        }
                                    }
                                }
                            }
                            JOINT LeftFinger1
                            {
                                OFFSET   8.364480   0.000000   3.252850
                                CHANNELS 3 Zrotation Xrotation Yrotation
                                JOINT LeftFinger11
                                {
                                    OFFSET   4.646930   0.000000   0.000000
                                    CHANNELS 3 Zrotation Xrotation Yrotation
                                    JOINT LeftFinger12
                                    {
                                        OFFSET   2.323460   0.000000   0.000000
                                        CHANNELS 3 Zrotation Xrotation Yrotation
                                        End Site
                                        {
                                            OFFSET   2.273050   0.000000   0.000000
                                        }
                                    }
                                }
                            }
                            JOINT LeftFinger2
                            {
                                OFFSET   8.364490   0.000015   1.078090
                                CHANNELS 3 Zrotation Xrotation Yrotation
                                JOINT LeftFinger21
                                {
                                    OFFSET   5.111620   0.000000   0.000000
                                    CHANNELS 3 Zrotation Xrotation Yrotation
                                    JOINT LeftFinger22
                                    {
                                        OFFSET   2.788160   0.000016   0.000000
                                        CHANNELS 3 Zrotation Xrotation Yrotation
                                        End Site
                                        {
                                            OFFSET   2.727660   0.000000   0.000000
                                        }
                                    }
                                }
                            }
                            JOINT LeftFinger3
                            {
                                OFFSET   7.899780   0.000017  -1.078090
                                CHANNELS 3 Zrotation Xrotation Yrotation
                                JOINT LeftFinger31
                                {
                                    OFFSET   4.646930   0.000000   0.000000
                                    CHANNELS 3 Zrotation Xrotation Yrotation
                                    JOINT LeftFinger32
                                    {
                                        OFFSET   2.323470   0.000000   0.000000
                                        CHANNELS 3 Zrotation Xrotation Yrotation
                                        End Site
                                        {
                                            OFFSET   2.273050   0.000000   0.000000
                                        }
                                    }
                                }
                            }
                            JOINT LeftFinger4
                            {
                                OFFSET   7.435090   0.000000  -3.252850
                                CHANNELS 3 Zrotation Xrotation Yrotation
                                JOINT LeftFinger41
                                {
                                    OFFSET   3.717550   0.000000   0.000000
                                    CHANNELS 3 Zrotation Xrotation Yrotation
                                    JOINT LeftFinger42
                                    {
                                        OFFSET   1.858770   0.000000   0.000000
                                        CHANNELS 3 Zrotation Xrotation Yrotation
                                        End Site
                                        {
                                            OFFSET   1.818440   0.000000   0.000000
                                        }
                                    }
                                }
                            }
                        }
                    }
                }
            }
            JOINT RightCollar
            {
                OFFSET  -3.911900  19.017000  -0.467063
                CHANNELS 3 Zrotation Xrotation Yrotation
                JOINT RightShoulder
                {
                    OFFSET -10.383700   0.000019   0.000000
                    CHANNELS 3 Zrotation Xrotation Yrotation
                    JOINT RightElbow
                    {
                        OFFSET -26.662100   0.001175   0.000102
                        CHANNELS 3 Zrotation Xrotation Yrotation
                        JOINT RightWrist
                        {
                            OFFSET -28.869000   0.000016  -0.000079
                            CHANNELS 3 Zrotation Xrotation Yrotation
                            JOINT RightFinger0
                            {
                                OFFSET  -2.044660  -2.323490   3.252850
                                CHANNELS 3 Zrotation Xrotation Yrotation
                                JOINT RightFinger01
                                {
                                    OFFSET  -3.088140   0.000000   0.000000
                                    CHANNELS 3 Zrotation Xrotation Yrotation
                                    JOINT RightFinger02
                                    {
                                        OFFSET  -2.639460   0.000000   0.000000
                                        CHANNELS 3 Zrotation Xrotation Yrotation
                                        End Site
                                        {
                                            OFFSET  -2.582190   0.000000   0.000000
                                        }
                                    }
                                }
                            }
                            JOINT RightFinger1
                            {
                                OFFSET  -8.364480   0.000000   3.252850
                                CHANNELS 3 Zrotation Xrotation Yrotation
                                JOINT RightFinger11
                                {
                                    OFFSET  -4.646930   0.000000   0.000000
                                    CHANNELS 3 Zrotation Xrotation Yrotation
                                    JOINT RightFinger12
                                    {
                                        OFFSET  -2.323470   0.000000   0.000000
                                        CHANNELS 3 Zrotation Xrotation Yrotation
                                        End Site
                                        {
                                            OFFSET  -2.273050   0.000000   0.000000
                                        }
                                    }
                                }
                            }
                            JOINT RightFinger2
                            {
                                OFFSET  -8.364480   0.000000   1.078090
                                CHANNELS 3 Zrotation Xrotation Yrotation
                                JOINT RightFinger21
                                {
                                    OFFSET  -5.111620   0.000000   0.000000
                                    CHANNELS 3 Zrotation Xrotation Yrotation
                                    JOINT RightFinger22
                                    {
                                        OFFSET  -2.788160   0.000000   0.000000
                                        CHANNELS 3 Zrotation Xrotation Yrotation
                                        End Site
                                        {
                                            OFFSET  -2.727660   0.000000   0.000000
                                        }
                                    }
                                }
                            }
                            JOINT RightFinger3
                            {
                                OFFSET  -7.899780   0.000000  -1.078090
                                CHANNELS 3 Zrotation Xrotation Yrotation
                                JOINT RightFinger31
                                {
                                    OFFSET  -4.646930   0.000000   0.000000
                                    CHANNELS 3 Zrotation Xrotation Yrotation
                                    JOINT RightFinger32
                                    {
                                        OFFSET  -2.323470   0.000000   0.000000
                                        CHANNELS 3 Zrotation Xrotation Yrotation
                                        End Site
                                        {
                                            OFFSET  -2.273050   0.000000   0.000000
                                        }
                                    }
                                }
                            }
                            JOINT RightFinger4
                            {
                                OFFSET  -7.435090   0.000000  -3.252850
                                CHANNELS 3 Zrotation Xrotation Yrotation
                                JOINT RightFinger41
                                {
                                    OFFSET  -3.717550   0.000000   0.000000
                                    CHANNELS 3 Zrotation Xrotation Yrotation
                                    JOINT RightFinger42
                                    {
                                        OFFSET  -1.858770   0.000000   0.000000
                                        CHANNELS 3 Zrotation Xrotation Yrotation
                                        End Site
                                        {
                                            OFFSET  -1.818440   0.000000   0.000000
                                        }
                                    }
                                }
                            }
                        }
                    }
                }
            }
        }
    }
    JOINT LeftHip
    {
        OFFSET   9.783040   0.000000   0.000000
        CHANNELS 3 Zrotation Xrotation Yrotation
        JOINT LeftKnee
        {
            OFFSET   0.000032 -41.789100  -0.002222
            CHANNELS 3 Zrotation Xrotation Yrotation
            JOINT LeftAnkle
            {
                OFFSET   0.000087 -41.133200  -0.000135
                CHANNELS 3 Zrotation Xrotation Yrotation
                JOINT LeftToe
                {
                    OFFSET   0.000000  -6.358960  14.674500
                    CHANNELS 3 Zrotation Xrotation Yrotation
                    End Site
                    {
                        OFFSET   0.000000   0.000000   3.913200
                    }
                }
            }
        }
    }
    JOINT RightHip
    {
        OFFSET  -9.783040   0.000000   0.000000
        CHANNELS 3 Zrotation Xrotation Yrotation
        JOINT RightKnee
        {
            OFFSET   0.000047 -41.789100  -0.000896
            CHANNELS 3 Zrotation Xrotation Yrotation
            JOINT RightAnkle
            {
                OFFSET  -0.000117 -41.133300  -0.000248
                CHANNELS 3 Zrotation Xrotation Yrotation
                JOINT RightToe
                {
                    OFFSET   0.000000  -6.358970  14.674500
                    CHANNELS 3 Zrotation Xrotation Yrotation
                    End Site
                    {
                        OFFSET   0.000000   0.000000   3.913200
                    }
                }
            }
        }
    }
}
MOTION
Frames: 4
Frame Time:   0.016667
  1.086950  89.425800   2.774160  -2.048580  -2.075500   0.046122   1.914480   2.861530  -0.673013   3.869720   5.698680  -1.444190  -0.561627  -0.355240   0.001682  -0.932082  -0.720145   6.310370  -8.466400   2.403410   0.545778 -71.203500  17.620300  -7.544700  -2.253520  -5.767710 -10.788000   6.287230  -7.181180  11.058500  43.393000  32.655700 -66.809700 -23.448200  -0.000903   0.004416  -6.729370  -0.002160   0.005226 -32.787200   6.445820  -9.887020 -27.284400  -0.005265   0.011895 -19.099100  -0.004472  -0.013527 -28.306800   2.521650  -4.644360 -35.202200  -0.003599  -0.008007 -23.447500  -0.002405  -0.004893 -28.527700   0.259756  -0.456952 -36.389500  -0.006456   0.008211 -24.241500  -0.005903   0.000685 -35.777800   0.047715  -0.076858 -53.666700  -0.007591   0.001753 -35.742000  -0.004404  -0.003952   6.100880  -0.439841  10.999400  69.655900   3.359220  -0.680201   0.212151  -7.131800   8.040350  -6.259930  -9.160350   1.779800 -36.261300  34.191900  66.092700  36.629300  -0.001282  -0.002050  13.312400   0.001328  -0.001281  33.511800   8.532640  12.641900  28.194200  -0.000907  -0.002761  19.736000   0.006951  -0.002512  28.109800   4.537950   8.426090  35.527400  -0.003251   0.000369  23.661300  -0.000786  -0.000969  28.014000   0.834902   1.568250  32.225200   0.002146  -0.008526  21.462000  -0.001987  -0.004604  32.069800   0.863775   1.381720  48.109500  -0.001061  -0.000147  32.048200  -0.001024  -0.002904   2.981340   6.577610   3.931620   0.257316   1.103350  12.296000  -3.096370  -4.427740   3.577800  -0.000000   0.000000   0.000000   1.004350   3.631780  -3.870770   1.557680   2.657240 -11.753800  -2.221510  -3.552510  -0.693249   0.000000   0.000000   0.000000
  1.080540  89.425800   2.774100  -2.052760  -2.103880   0.033347   1.914380   2.869510  -0.673090   3.869600   5.714650  -1.444610  -0.565702  -0.350550   0.001664  -0.936351  -0.710819   6.326460  -8.465020   2.401930   0.548878 -71.202900  17.655300  -7.569270  -2.251500  -5.771200 -10.777400   6.291420  -7.182570  11.058400  43.393100  32.649800 -66.800600 -23.448200  -0.000906   0.004415  -6.729260  -0.002164   0.005223 -32.786900   6.446780  -9.888590 -27.284100  -0.005265   0.011896 -19.098900  -0.004470  -0.013526 -28.306800   2.521510  -4.645440 -35.202700  -0.003597  -0.008009 -23.447500  -0.002405  -0.004894 -28.527700   0.259684  -0.458181 -36.392000  -0.006455   0.008209 -24.241500  -0.005902   0.000685 -35.777800   0.047735  -0.076921 -53.666700  -0.007590   0.001755 -35.742000  -0.004404  -0.003949   6.097810  -0.445858  10.993900  69.662900   3.412300  -0.638824   0.197856  -7.128250   8.057930  -6.270700  -9.155800   1.779670 -36.259800  34.192800  66.094800  36.628000  -0.001277  -0.002050  13.312000   0.001324  -0.001276  33.523500   8.540000  12.642100  28.204200  -0.000906  -0.002759  19.743000   0.006955  -0.002511  28.108900   4.542650   8.434550  35.538300  -0.003251   0.000372  23.668600  -0.000784  -0.000963  28.014100   0.837002   1.572260  32.207700   0.002143  -0.008519  21.450300  -0.001989  -0.004599  32.069600   0.863845   1.381820  48.120500  -0.001061  -0.000141  32.048000  -0.001026  -0.002904   2.987220   6.635530   3.932090   0.257466   1.047730  12.305100  -3.089900  -4.404950   3.577580  -0.000000   0.000000   0.000000   1.015490   3.660250  -3.870870   1.553020   2.660480 -11.747800  -2.221230  -3.553780  -0.688589  -0.000000   0.000000  -0.000000
  1.070400  89.425800   2.774040  -2.060000  -2.154700   0.012167   1.914360   2.884690  -0.673238   3.869890   5.745020  -1.445460  -0.572795  -0.342142   0.001637  -0.944362  -0.693965   6.352500  -8.461700   2.395930   0.556948 -71.206300  17.717200  -7.613480  -2.245330  -5.778600 -10.756700   6.301450  -7.187200  11.058300  43.393200  32.643900 -66.791600 -23.448200  -0.000909   0.004410  -6.729080  -0.002168   0.005221 -32.786000   6.449380  -9.892240 -27.283800  -0.005262   0.011897 -19.098700  -0.004467  -0.013523 -28.306600   2.521370  -4.649650 -35.206300  -0.003591  -0.008013 -23.447500  -0.002403  -0.004895 -28.527600   0.259612  -0.462033 -36.398700  -0.006452   0.008203 -24.241500  -0.005899   0.000685 -35.777800   0.047784  -0.077054 -53.666700  -0.007587   0.001759 -35.742000  -0.004403  -0.003943   6.090940  -0.458033  10.984700  69.677200   3.497040  -0.565990   0.169807  -7.113870   8.094430  -6.292030  -9.149580   1.779540 -36.261900  34.200800  66.107800  36.619100  -0.001272  -0.002051  13.309600   0.001320  -0.001270  33.542000   8.551650  12.642500  28.219900  -0.000905  -0.002757  19.754000   0.006961  -0.002509  28.107600   4.551070   8.449910  35.551100  -0.003251   0.000379  23.677100  -0.000782  -0.000947  28.013600   0.851706   1.600310  32.179400   0.002130  -0.008500  21.431400  -0.001990  -0.004588  32.069300   0.863976   1.382000  48.131500  -0.001061  -0.000123  32.047700  -0.001029  -0.002904   2.996430   6.723340   3.932830   0.257503   0.992084  12.321800  -3.083470  -4.382160   3.576660   0.000000   0.000000   0.000000   1.034050   3.709060  -3.870930   1.544580   2.668220 -11.738800  -2.220680  -3.556490  -0.679177   0.000000   0.000000  -0.000000
  1.063410  89.425700   2.777200  -2.066360  -2.202130  -0.004319   1.915690   2.900330  -0.673379   3.872870   5.776270  -1.446380  -0.579477  -0.333450   0.001629  -0.953125  -0.676215   6.372230  -8.456710   2.382940   0.570004 -71.218500  17.777300  -7.655240  -2.233640  -5.790650 -10.733400   6.316260  -7.197060  11.058500  43.398100  32.649100 -66.801800 -23.447800  -0.000905   0.004398  -6.728900  -0.002168   0.005224 -32.788400   6.455040  -9.898970 -27.285800  -0.005256   0.011898 -19.100100  -0.004462  -0.013520 -28.307100   2.521460  -4.661070 -35.217200  -0.003581  -0.008021 -23.453600  -0.002397  -0.004891 -28.527500   0.259682  -0.471299 -36.409400  -0.006450   0.008196 -24.247100  -0.005892   0.000686 -35.780700   0.047857  -0.077236 -53.671100  -0.007581   0.001766 -35.744900  -0.004400  -0.003936   6.081520  -0.471772  10.979100  69.693400   3.554350  -0.502313   0.139861  -7.086080   8.138970  -6.312710  -9.147490   1.780420 -36.288200  34.231200  66.149400  36.593100  -0.001275  -0.002041  13.297400   0.001328  -0.001271  33.551700   8.559110  12.647200  28.228700  -0.000903  -0.002755  19.760100   0.006965  -0.002506  28.106900   4.559500   8.465740  35.552300  -0.003251   0.000387  23.677900  -0.000785  -0.000921  28.009800   0.915526   1.720240  32.162500   0.002103  -0.008467  21.420200  -0.001985  -0.004573  32.069200   0.864151   1.382170  48.126900  -0.001061  -0.000094  32.047600  -0.001035  -0.002904   3.002510   6.771060   3.933660   0.257568   1.007250  12.338300  -3.084860  -4.393090   3.570070   0.000000   0.000000   0.000000   1.049130   3.748170  -3.870950   1.536030   2.683000 -11.733100  -2.220110  -3.559980  -0.667714  -0.000000   0.000000   0.000000
